# xmcd
#
# Track frame offsets:
#	150
#	18365
#	31080
#	52945
#	67541
#	78385
#	100579
#	124008
#	143491
#	158681
#	176924
#	191944
#	203008
#	216252
#	239808
#	262296
#
# Disc length: 3739 seconds
# Revision: 0
# Processed by: cddbd v1.5.2PL0 Copyright (c) Steve Scherf et al.
# Submitted via: dBpowerAMP V12.0
#
DISCID=d90e9910
DTITLE=Watermelon Slim and the Workers - Bull Goose Rooster
DYEAR=2013
DGENRE=Blues
TTITLE0=Tomorrow Night
TTITLE1=Bull Goose Rooster
TTITLE2=Over the Horizon
TTITLE3=Vigilante Man
TTITLE4=A Wrench In the Machine
TTITLE5=I'm a King Bee
TTITLE6=Prison Walls
TTITLE7=Blue Freightliner
TTITLE8=Scratch My Back
TTITLE9=I Ain't Whistling Dixie
TTITLE10=Take My Mother Home
TTITLE11=The Wobble
TTITLE12=Trucking Class
TTITLE13=Northwest Passage
TTITLE14=The Foreign Policy Blues
TTITLE15=Words Are Coming To an End
EXTD=
EXTT0=
EXTT1=
EXTT2=
EXTT3=
EXTT4=
EXTT5=
EXTT6=
EXTT7=
EXTT8=
EXTT9=
EXTT10=
EXTT11=
EXTT12=
EXTT13=
EXTT14=
EXTT15=
PLAYORDER=
